# xmcd
#
# Track frame offsets:
#	150
#	15462
#	27659
#	42360
#	52211
#	66649
#	86707
#	99735
#	115348
#	131180
#	155286
#	165664
#	184584
#	195380
#	208439
#	220397
#	232310
#	241130
#	252514
#	262797
#
# Disc length: 3733 seconds
# Revision: 0
# Processed by: cddbd v1.5.2PL0 Copyright (c) Steve Scherf et al.
# Submitted via: dBpowerAMP V12.0
#
DISCID=320e9314
DTITLE=Various Artist - Latest and Greatest Country Love
DYEAR=2013
DGENRE=Country
TTITLE0=Billy Ray Cyrus - Achy Breaky Heart
TTITLE1=Charlie Rich - The Most Beautiful Girl
TTITLE2=The Bellamy Brothers - Let Your Love Flow
TTITLE3=Linda Ronstadt - When Will I Be Loved
TTITLE4=The Forester Sisters - I Fell In Love Again Last Night
TTITLE5=Patty Smyth Feat. Don Henley - Sometimes Love Just Ain't Enough
TTITLE6=Dr. Hook - A Little Bit More
TTITLE7=Kenny Rogers - Unchained Melody
TTITLE8=Willie Nelson - Always On My Mind
TTITLE9=The Judds - Love Can Build A Bridge
TTITLE10=Kris Kristofferson - Help Me Make It Through The Night
TTITLE11=Nanci Griffith - From A Distance
TTITLE12=Gram Parsons - Brand New Heartache
TTITLE13=Lynn Anderson - Rose Garden
TTITLE14=The McCarters - Timeless And True Love
TTITLE15=Tanya Tucker - Love's The Answer
TTITLE16=Emmylou Harris, Alison Krauss and Gillian Welch - Didn't Leave Nobody But The Baby
TTITLE17=Dolly Parton - Making Believe
TTITLE18=The Everly Brothers - All I Have To Do Is Dream
TTITLE19=Jimmy Buffett - Brown Eyed Girl
EXTD=
EXTT0=
EXTT1=
EXTT2=
EXTT3=
EXTT4=
EXTT5=
EXTT6=
EXTT7=
EXTT8=
EXTT9=
EXTT10=
EXTT11=
EXTT12=
EXTT13=
EXTT14=
EXTT15=
EXTT16=
EXTT17=
EXTT18=
EXTT19=
PLAYORDER=
